<svg width="50" height="50" viewBox="0 0 50 50" fill="none" xmlns="http://www.w3.org/2000/svg">
<path d="M32.3354 20.0417C32.3354 20.626 32.1033 21.1863 31.6901 21.5995C31.277 22.0127 30.7166 22.2448 30.1323 22.2448C29.548 22.2448 28.9876 22.0127 28.5745 21.5995C28.1613 21.1863 27.9292 20.626 27.9292 20.0417C27.9292 19.4574 28.1613 18.897 28.5745 18.4838C28.9876 18.0707 29.548 17.8385 30.1323 17.8385C30.7166 17.8385 31.277 18.0707 31.6901 18.4838C32.1033 18.897 32.3354 19.4574 32.3354 20.0417ZM50 25C50 38.8062 38.8063 50 25 50C24.2708 50 23.5486 49.9694 22.8333 49.9083C27.0396 45.9708 28.1417 39.3646 28.1417 39.3646L21.4208 37.1708C21.4208 37.1708 18.2979 43.9 9.75626 44.8167C6.71848 42.4836 4.25843 39.4827 2.56661 36.0464C0.874782 32.61 -0.00341845 28.8303 9.99985e-06 25C9.99985e-06 11.1937 11.1938 0 25 0C38.8063 0 50 11.1937 50 25ZM17.975 13.7625C15.4125 13.4917 14.0479 12.0333 13.7458 9.53125C13.45 11.9458 12.1417 13.4479 9.51251 13.7625C11.9458 14.2354 13.325 15.675 13.7438 17.9958C13.7021 15.5917 15.1313 14.1937 17.975 13.7625ZM34.1958 24.6104C36.5083 19.4375 35.0125 15.7521 31.6271 11.5979C27.3708 14.7229 23.7958 17.8958 24.0521 22.325C21.1875 23.7312 19.3417 24.8375 17.4958 27.0938L23.2854 29.3917L22.5188 32.0312L30.0958 34.2437L31.0188 31.7833L36.9042 33.1396C36.9333 30.0229 36.1125 26.6875 34.1958 24.6104Z" fill="#653FC0"/>
</svg>
