<svg width="45" height="46" viewBox="0 0 45 46" fill="none" xmlns="http://www.w3.org/2000/svg">
<path d="M7.00974 0.541992L15.8017 34.3066L44.0459 36.5771L35.2507 2.8125L7.00974 0.541992ZM5.16345 0.694726C2.18826 1.8542 -0.274049 5.88008 0.305053 8.04941L0.622435 9.1998C0.687572 9.02793 0.755248 8.85586 0.82683 8.68418C1.7946 6.36914 3.42068 4.11719 5.74646 2.93164L5.16345 0.694726ZM6.22244 4.75654C4.59578 5.73428 3.30056 7.49844 2.5115 9.38613C1.9991 10.6117 1.72654 11.8891 1.65701 12.9535L7.9863 35.9304C8.01501 35.8767 8.04216 35.8224 8.07175 35.7687C9.1072 33.8886 10.7888 32.0875 13.0644 31.0353L6.22234 4.75684L6.22244 4.75654ZM13.5343 32.8419C11.8081 33.7284 10.4928 35.158 9.67087 36.6505C9.23493 37.4422 8.96091 38.2485 8.82243 38.9698L9.96384 43.1112L10.1225 43.1234C9.74753 40.4332 11.2311 37.2148 14.1509 35.2041L13.5343 32.8419ZM16.107 36.1622C12.9266 37.8487 11.565 41.2833 12.0207 43.2853L40.3258 45.6778C39.8043 44.9171 39.4788 43.9252 39.4865 42.8946L37.2984 42.0157L41.8242 41.3043L40.5058 40.047C41.0531 39.3715 41.8444 38.7726 42.929 38.3197L16.107 36.1621V36.1622Z" fill="#653FC0"/>
</svg>
