<svg width="44" height="50" viewBox="0 0 44 50" fill="none" xmlns="http://www.w3.org/2000/svg">
<path d="M0 9.375C0 4.19922 4.19922 0 9.375 0H40.625C42.3535 0 43.75 1.39648 43.75 3.125V34.375C43.75 36.1035 42.3535 37.5 40.625 37.5V43.75C42.3535 43.75 43.75 45.1465 43.75 46.875C43.75 48.6035 42.3535 50 40.625 50H9.375C4.19922 50 0 45.8008 0 40.625V9.375ZM6.25 40.625C6.25 42.3535 7.64648 43.75 9.375 43.75H34.375V37.5H9.375C7.64648 37.5 6.25 38.8965 6.25 40.625ZM24.1602 27.7148C23.7988 28.0762 23.5547 28.125 23.4375 28.125C23.3203 28.125 23.0762 28.0762 22.7148 27.7148C22.3438 27.3535 21.9336 26.7383 21.5625 25.8691C20.957 24.4531 20.5078 22.5195 20.3711 20.3125H26.5234C26.377 22.5195 25.9375 24.4531 25.332 25.8691C24.9609 26.7383 24.5508 27.3535 24.1797 27.7148H24.1602ZM28.3301 26.748C29.043 24.9609 29.502 22.7344 29.6387 20.3125H32.6758C32.2168 23.0371 30.5859 25.3613 28.3301 26.748ZM28.3301 10.752C30.5957 12.1387 32.2266 14.4629 32.6758 17.1875H29.6387C29.502 14.7754 29.043 12.5488 28.3301 10.752ZM35.9375 18.75C35.9375 15.4348 34.6205 12.2554 32.2763 9.91117C29.9321 7.56696 26.7527 6.25 23.4375 6.25C20.1223 6.25 16.9429 7.56696 14.5987 9.91117C12.2545 12.2554 10.9375 15.4348 10.9375 18.75C10.9375 22.0652 12.2545 25.2446 14.5987 27.5888C16.9429 29.933 20.1223 31.25 23.4375 31.25C26.7527 31.25 29.9321 29.933 32.2763 27.5888C34.6205 25.2446 35.9375 22.0652 35.9375 18.75ZM14.1895 20.3125H17.2266C17.3633 22.7246 17.8223 24.9512 18.5352 26.748C16.2695 25.3613 14.6387 23.0371 14.1895 20.3125ZM17.2266 17.1875H14.1895C14.6484 14.4629 16.2793 12.1387 18.5352 10.752C17.8223 12.5391 17.3633 14.7656 17.2266 17.1875ZM22.7051 9.78516C23.0664 9.42383 23.3105 9.375 23.4277 9.375C23.5449 9.375 23.7891 9.42383 24.1504 9.78516C24.5215 10.1465 24.9316 10.7617 25.3027 11.6309C25.9082 13.0469 26.3574 14.9805 26.4941 17.1875H20.3418C20.4883 14.9805 20.9277 13.0469 21.5332 11.6309C21.9043 10.7617 22.3145 10.1465 22.6855 9.78516H22.7051Z" fill="#653FC0"/>
</svg>
