<svg width="44" height="44" viewBox="0 0 44 44" fill="none" xmlns="http://www.w3.org/2000/svg">
<path d="M5.04794 0.933334L42.6125 38.5C42.9028 38.7901 43.1331 39.1346 43.2902 39.5138C43.4474 39.8929 43.5283 40.2993 43.5284 40.7097C43.5285 41.1201 43.4478 41.5265 43.2908 41.9057C43.1338 42.2849 42.9037 42.6295 42.6136 42.9198C42.3234 43.2101 41.979 43.4404 41.5998 43.5975C41.2207 43.7547 40.8143 43.8356 40.4039 43.8357C39.9935 43.8358 39.5871 43.755 39.2078 43.5981C38.8286 43.4411 38.4841 43.211 38.1938 42.9208L28.6188 33.3458L21.25 40.7083L12.6667 32.125V37.5833C12.6667 38.1359 12.4472 38.6658 12.0565 39.0565C11.6658 39.4472 11.1359 39.6667 10.5834 39.6667C10.0308 39.6667 9.50092 39.4472 9.11022 39.0565C8.71952 38.6658 8.50002 38.1359 8.50002 37.5833V29.25C8.49944 28.719 8.29611 28.2083 7.93159 27.8221C7.56707 27.436 7.06887 27.2037 6.53878 27.1726C6.0087 27.1414 5.48673 27.3139 5.07954 27.6547C4.67235 27.9955 4.41066 28.479 4.34794 29.0063L4.33544 29.25V31.3333C4.33544 31.8859 4.11595 32.4158 3.72525 32.8065C3.33455 33.1972 2.80464 33.4167 2.25211 33.4167C1.69957 33.4167 1.16967 33.1972 0.778969 32.8065C0.388268 32.4158 0.168774 31.8859 0.168774 31.3333V13.0292C0.083684 8.6809 1.7059 4.47241 4.68752 1.30625L5.04794 0.933334ZM5.55002 7.32917L5.44377 7.55833C4.81839 8.94065 4.44988 10.4253 4.35627 11.9396L4.33544 12.5854V12.8333C4.35971 15.9254 5.53297 18.8979 7.62711 21.1729L7.99377 21.5583L21.2521 34.8167L27.1438 28.9229L5.55002 7.32917Z" fill="#653FC0"/>
</svg>
