<svg width="46" height="47" viewBox="0 0 46 47" fill="none" xmlns="http://www.w3.org/2000/svg">
<path d="M29.2119 0.0169907C30.4956 3.25078 30.4955 3.25088 28.6787 6.21816C31.9125 4.93447 31.9127 4.93437 34.8799 6.75107C33.5962 3.51728 33.5961 3.51738 35.4128 0.550096C32.179 1.83389 32.1792 1.83379 29.2119 0.0169907ZM9.0375 1.71299C7.88438 3.76767 7.88438 3.76767 5.54883 4.07793C7.60352 5.23115 7.60352 5.23105 7.91377 7.5667C9.06689 5.51201 9.06689 5.51201 11.4024 5.20176C9.34775 4.04863 9.34775 4.04863 9.0375 1.71299ZM16.5131 7.19971C16.4201 12.1399 16.4203 12.1399 12.4124 15.0298C17.3525 15.1226 17.3526 15.1226 20.2425 19.1304C20.3353 14.1901 20.3353 14.1901 24.3431 11.3003C19.4028 11.2075 19.4028 11.2075 16.513 7.19971H16.5131ZM35.1827 12.6572C35.1782 15.0134 35.178 15.0132 33.2904 16.4232C35.6466 16.4278 35.6466 16.4277 37.0566 18.3153C37.0612 15.9593 37.0611 15.9594 38.9487 14.5493C36.5927 14.5447 36.5928 14.5448 35.1827 12.6572ZM17.2056 20.8486C17.0918 20.8509 16.9781 20.8553 16.8646 20.8617C15.049 20.9656 12.7759 21.6836 9.30156 23.0645L5.42305 40.342C13.0878 38.3172 18.4084 38.2024 22.1213 39.8913V22.1904C20.3561 21.3298 19.0168 20.8819 17.5601 20.8489C17.4419 20.8465 17.3238 20.8464 17.2057 20.8487L17.2056 20.8486ZM29.1866 21.9639C28.9094 21.9614 28.6322 21.9646 28.3552 21.9734C27.1042 22.0142 25.6562 22.1897 23.8786 22.415V39.7134C28.133 38.9492 34.3132 39.3032 40.6017 40.4522L36.7169 23.1479C33.2106 22.3305 31.1906 21.9848 29.1866 21.964V21.9639ZM29.4102 23.6191C31.2548 23.6391 33.009 23.8895 34.655 24.1094L35.0883 25.7229C32.766 25.3567 28.6463 25.2438 26.0583 25.6272L25.9962 23.8885C27.1641 23.6781 28.3033 23.6072 29.4102 23.6191ZM4.94893 24.074L3.91211 28.5666H6.26504L7.27344 24.074H4.94893ZM38.7264 24.074L42.6074 41.3622L42.8261 42.3361L45.0322 42.3213L41.0425 24.074H38.7264ZM31.0255 29.7205C32.685 29.723 34.3136 29.7978 35.8249 29.9376L36.169 31.6147C32.9811 31.314 29.0812 31.3326 26.1109 31.6147L26.0417 29.9376C27.6758 29.7879 29.3659 29.7181 31.0255 29.7205ZM3.50664 30.324L2.83047 33.2541H5.2127L5.87041 30.324H3.50664ZM30.3053 32.9846C30.76 32.9866 31.2317 32.9929 31.7424 33.0044L31.9919 34.7132C30.0417 34.6672 27.3908 34.7679 26.1591 34.8157L26.0907 33.0594C27.7316 33.0112 28.9412 32.9785 30.3053 32.9846ZM34.3557 33.0282C35.1631 33.0323 35.9862 33.0608 36.7112 33.035L36.9632 34.7674C36.1182 34.7369 34.5345 34.6863 33.8319 34.7184L33.5578 33.0354C33.8237 33.0287 34.0897 33.0264 34.3557 33.0282ZM2.425 35.0115L0.668652 42.6217L3.11348 42.6051L4.81807 35.0115H2.425ZM32.0309 36.1686C33.9457 36.1676 35.8062 36.2441 37.5435 36.4197L37.836 38.4497C34.4859 38.0353 29.4615 37.698 26.2052 38.1329L26.1915 36.3827C28.1466 36.248 30.1159 36.1695 32.0309 36.1686ZM15.7607 40.4703C12.8201 40.4791 9.12832 41.0807 4.49043 42.4L3.78535 42.6005L22.1212 42.4765V41.8566C20.5356 40.9576 18.4669 40.4623 15.7608 40.4703H15.7607ZM28.8867 41.0732C26.9697 41.0798 25.2625 41.2138 23.8786 41.4816V42.4645L41.2218 42.347C36.8935 41.5038 32.517 41.0608 28.8868 41.0732H28.8867ZM0.539062 44.3867V46.1445H45.4609V44.3867H0.539062Z" fill="#653FC0"/>
</svg>
