<svg width="50" height="50" viewBox="0 0 50 50" fill="none" xmlns="http://www.w3.org/2000/svg">
<path d="M25 0C21.275 0 18.4077 0.976923 16.3462 2.58462C14.2846 4.19038 13.1 6.35192 12.2596 8.35385C11.4192 10.3558 10.8808 12.2673 10.3365 13.6423C9.79231 15.0173 9.34231 15.5481 8.95385 15.6846C3.66154 17.5577 3.56278e-06 22.1538 3.56278e-06 28.1846C-0.000939128 28.6746 0.185223 29.1466 0.520471 29.504C0.855719 29.8614 1.31476 30.0773 1.80385 30.1077C4.22116 30.2365 5.38462 30.8038 6.00962 31.3692C6.63462 31.9346 6.92116 32.6865 7.09231 33.7154C7.26346 34.7442 7.27885 35.9462 7.51154 37.2596C7.62885 37.9154 7.78847 38.6096 8.2327 39.3038C8.67885 39.9962 9.46539 40.6346 10.3365 40.925C12.375 41.6058 13.6769 42.0269 14.4827 42.4885C15.2885 42.95 15.7692 43.3596 16.4058 44.7115C17.0135 45.9962 17.8365 47.4038 19.2904 48.4385C20.7442 49.4712 22.7135 50.0308 25.1808 50C29.2212 49.95 31.6327 47.8596 32.8731 46.0327C33.4923 45.1212 33.9288 44.3269 34.3154 43.8096C34.7019 43.2923 34.9308 43.0904 35.3365 42.9692C37.9673 42.1769 39.6365 40.7577 40.5654 39.1827C41.4942 37.6077 41.7385 36.1019 42.0077 35.0365C42.2769 33.9692 42.4423 33.5038 43.0288 33.1135C43.6154 32.7212 45.0115 32.2942 47.9577 32.4519C48.2201 32.4682 48.483 32.4305 48.7303 32.3412C48.9776 32.2519 49.2039 32.1128 49.3953 31.9326C49.5867 31.7524 49.7391 31.5348 49.8431 31.2934C49.9471 31.0519 50.0005 30.7917 50 30.5288C50 27.8769 50.0385 24.8 48.8577 21.9346C47.6769 19.0692 45.0654 16.6192 40.6846 15.625C40.6385 15.6135 40.5846 15.6442 40.3846 15.3846C40.1846 15.1269 39.9327 14.6154 39.6635 13.9423C39.125 12.5962 38.5462 10.6327 37.6808 8.59423C36.8154 6.55577 35.5827 4.36731 33.5327 2.70385C31.4846 1.04231 28.6635 0 25 0ZM25 3.84615C27.9577 3.84615 29.7712 4.60769 31.1308 5.70962C32.4885 6.81154 33.4 8.36346 34.1346 10.0962C34.8712 11.8269 35.3904 13.7115 36.0577 15.3846C36.3923 16.2212 36.7519 16.9962 37.3192 17.7288C37.8865 18.4596 38.7808 19.1712 39.8442 19.4115C43.3269 20.2 44.5423 21.5692 45.3115 23.4385C45.8865 24.8288 45.8615 26.8077 45.9135 28.7269C43.8596 28.8231 42.1404 29.1173 40.925 29.9269C39.2654 31.0346 38.6173 32.7462 38.2808 34.075C37.9442 35.4019 37.7192 36.4788 37.2596 37.2596C36.8 38.0404 36.1442 38.7154 34.1942 39.3038C32.825 39.7154 31.8404 40.6558 31.1904 41.5269C30.5404 42.3981 30.1462 43.2538 29.6865 43.9308C28.7692 45.2846 28.1058 46.1154 25.1212 46.1538C23.2308 46.1788 22.2135 45.8096 21.5135 45.3115C20.8154 44.8154 20.3673 44.0981 19.8923 43.0885C19.0327 41.2692 17.8269 39.9365 16.4058 39.1231C14.9846 38.3096 13.5019 37.9154 11.5385 37.2596C11.4308 37.2231 11.5115 37.3115 11.4788 37.2596C11.3885 37.0485 11.3277 36.8258 11.2981 36.5981C11.1635 35.8365 11.1212 34.5135 10.8769 33.0538C10.6346 31.5923 10.0558 29.8712 8.59423 28.5462C7.5077 27.5615 5.92693 26.9692 4.02693 26.6231C4.52693 22.9788 6.65962 20.55 10.2173 19.2904C12.2558 18.5692 13.2654 16.7923 13.9423 15.0846C14.6192 13.375 15.1 11.475 15.8058 9.79615C16.5096 8.11731 17.4058 6.69615 18.75 5.64808C20.0942 4.6 21.9288 3.84615 25 3.84615ZM20.1923 11.5385C18.6 11.5385 17.3077 13.2596 17.3077 15.3846C17.3077 17.5096 18.6 19.2308 20.1923 19.2308C21.7846 19.2308 23.0769 17.5096 23.0769 15.3846C23.0769 13.2596 21.7846 11.5385 20.1923 11.5385ZM27.8846 11.5385C26.2923 11.5385 25 13.2596 25 15.3846C25 17.5096 26.2923 19.2308 27.8846 19.2308C29.4769 19.2308 30.7692 17.5096 30.7692 15.3846C30.7692 13.2596 29.4769 11.5385 27.8846 11.5385Z" fill="#653FC0"/>
</svg>
