<svg width="38" height="46" viewBox="0 0 38 46" fill="none" xmlns="http://www.w3.org/2000/svg">
<path d="M25.25 25.0833C25.25 23.4257 24.5915 21.836 23.4194 20.6639C22.2473 19.4918 20.6576 18.8333 19 18.8333C17.3424 18.8333 15.7527 19.4918 14.5806 20.6639C13.4085 21.836 12.75 23.4257 12.75 25.0833" stroke="#653FC0" stroke-width="4.16667" stroke-linecap="round" stroke-linejoin="round"/>
<path d="M2.33331 38.625V7.375C2.33331 5.99366 2.88205 4.6689 3.8588 3.69215C4.83555 2.7154 6.16031 2.16666 7.54165 2.16666H33.5833C34.1358 2.16666 34.6658 2.38616 35.0565 2.77686C35.4472 3.16756 35.6666 3.69746 35.6666 4.25V41.75C35.6666 42.3025 35.4472 42.8324 35.0565 43.2231C34.6658 43.6138 34.1358 43.8333 33.5833 43.8333H7.54165C6.16031 43.8333 4.83555 43.2846 3.8588 42.3078C2.88205 41.3311 2.33331 40.0063 2.33331 38.625ZM2.33331 38.625C2.33331 37.2437 2.88205 35.9189 3.8588 34.9421C4.83555 33.9654 6.16031 33.4167 7.54165 33.4167H35.6666" stroke="#653FC0" stroke-width="4.16667" stroke-linecap="round" stroke-linejoin="round"/>
<path d="M19 18.8333C21.3012 18.8333 23.1666 16.9679 23.1666 14.6667C23.1666 12.3655 21.3012 10.5 19 10.5C16.6988 10.5 14.8333 12.3655 14.8333 14.6667C14.8333 16.9679 16.6988 18.8333 19 18.8333Z" stroke="#653FC0" stroke-width="4.16667" stroke-linecap="round" stroke-linejoin="round"/>
</svg>
