<svg width="47" height="45" viewBox="0 0 47 45" fill="none" xmlns="http://www.w3.org/2000/svg">
<path d="M3.62441 0.199219V23.887L11.4369 26.8685V24.5156C9.23926 24.2015 7.03604 23.6726 5.33047 21.8941L6.64883 20.6308C7.83535 21.8678 9.48398 22.3166 11.3637 22.6204L8.80625 1.37402C7.11133 1.05127 5.37227 0.697266 3.62441 0.199219ZM42.4062 0.202148C36.0411 1.90059 28.895 0.21211 23.7323 7.11758V27.5094C25.6654 24.6627 28.1701 23.5186 30.6386 22.9654C33.9505 22.2229 37.1015 22.2659 39.5741 20.2676L40.7216 21.6865C37.6692 24.1536 34.0565 24.068 31.0382 24.7445C28.1773 25.3857 25.7669 26.4662 23.9825 30.9151L42.4061 23.8871L42.4062 0.202148ZM10.5791 0.8125L13.2556 23.0935L13.2614 23.1484V44.3307L15.2087 40.4947L17.2075 44.2208V24.9857L14.4612 1.61523L10.5794 0.8125H10.5791ZM16.4844 3.18066L18.9837 24.4484C19.4014 24.6777 19.7995 24.941 20.1739 25.2358C20.804 25.7336 21.386 26.3452 21.9073 27.0884V6.69336C20.394 4.98682 18.5479 3.92705 16.4844 3.18066ZM0.00195312 3.26328V26.6825L0.600098 26.9022L11.437 30.8847V28.9407L1.82695 25.4099V3.26328H0.00195312ZM44.2006 3.26621V25.4098L23.0152 33.192L19.0328 31.7301V35.4684C21.2994 36.2525 24.7045 36.1337 27.4557 35.2213V33.5061L45.4273 26.9021L46.0255 26.6824V3.26631L44.2006 3.26621ZM19.0326 26.658V29.7647L21.7244 30.7931C21.0369 28.7572 20.1067 27.506 19.0449 26.6671C19.0409 26.6642 19.0368 26.6612 19.0327 26.6581L19.0326 26.658Z" fill="#653FC0"/>
</svg>
