<svg width="42" height="42" viewBox="0 0 42 42" fill="none" xmlns="http://www.w3.org/2000/svg">
<path d="M12.8958 36.5208C10.5925 35.6721 8.54284 34.2516 6.93934 32.393C5.33583 30.5344 4.23118 28.2987 3.72918 25.8958L0.270847 9.625C-0.229153 7.375 1.20835 5.16667 3.45835 4.6875L23.8125 0.375003L23.875 0.35417C26.1042 -0.0833302 28.2917 1.35417 28.75 3.5625L29.4792 7.04167L38.5417 8.97917H38.6042C40.7917 9.47917 42.2083 11.6875 41.75 13.8958L38.2917 30.1875C37.8925 32.059 37.1286 33.8335 36.0435 35.4097C34.9584 36.9859 33.5734 38.3328 31.9677 39.3737C30.3619 40.4145 28.5669 41.1288 26.685 41.4758C24.8031 41.8227 22.8714 41.7956 21 41.3958C17.8261 40.7314 14.9701 39.0134 12.8958 36.5208ZM37.6667 13.0417L17.3125 8.70834L13.8542 25V25.0625C12.6667 30.6458 16.2708 36.1458 21.875 37.3333C27.4792 38.5208 33.0208 34.9375 34.2083 29.3333L37.6667 13.0417ZM29.3333 30.375C28.6757 31.4897 27.6839 32.3691 26.4987 32.8889C25.3134 33.4086 23.9946 33.5422 22.7292 33.2708C21.4672 33.002 20.3208 32.3454 19.4504 31.3928C18.58 30.4403 18.0292 29.2394 17.875 27.9583L29.3333 30.375ZM13.6458 6.77084L4.33335 8.77084L7.79168 25.0417L7.81251 25.1042C8.12501 26.5833 8.75001 27.9167 9.60418 29.0625C9.39585 27.4583 9.43751 25.7917 9.79168 24.125L10.6875 19.9583C9.75001 19.7917 8.93751 19.2708 8.50001 18.5208C8.62501 17.25 9.66668 16.125 11.1042 15.7917H11.625L13.25 7.85417C13.3333 7.45834 13.4583 7.10417 13.6458 6.77084ZM27.3125 21.4792C27.9792 20.375 29.3958 19.7917 30.8333 20.1042C32.2708 20.3958 33.3125 21.5 33.5 22.7917C32.8125 23.875 31.4167 24.4583 29.9583 24.125C28.5208 23.8542 27.4792 22.75 27.3125 21.4792ZM17.1458 19.3125C17.8125 18.2083 19.2083 17.625 20.6458 17.9375C22.0417 18.2292 23.1458 19.3542 23.3125 20.625C22.625 21.7083 21.2292 22.3125 19.7917 22.0417C18.3542 21.6875 17.3125 20.5833 17.1458 19.3125ZM20.9375 5.22917L25.0208 6.10417L24.6875 4.4375L20.9375 5.22917Z" fill="#653FC0"/>
</svg>
