<svg width="38" height="42" viewBox="0 0 38 42" fill="none" xmlns="http://www.w3.org/2000/svg">
<path d="M6.525 33.5H37.75V4.33333C37.75 2.03542 35.8812 0.166668 33.5833 0.166668H6.5C3.9875 0.166668 0.25 1.83125 0.25 6.41667V35.5833C0.25 40.1688 3.9875 41.8333 6.5 41.8333H37.75V37.6667H6.525C5.5625 37.6417 4.41667 37.2625 4.41667 35.5833C4.41667 35.375 4.43333 35.1854 4.46667 35.0146C4.7 33.8146 5.68333 33.5208 6.525 33.5ZM12.0167 11.9208C12.8838 11.0647 14.0533 10.5847 15.2719 10.5847C16.4904 10.5847 17.6599 11.0647 18.5271 11.9208L18.9937 12.3771L19.4583 11.9208C20.3258 11.0646 21.4957 10.5845 22.7146 10.5845C23.9335 10.5845 25.1033 11.0646 25.9708 11.9208C26.4009 12.3348 26.743 12.8313 26.9767 13.3807C27.2103 13.93 27.3308 14.5208 27.3308 15.1177C27.3308 15.7147 27.2103 16.3055 26.9767 16.8548C26.743 17.4041 26.4009 17.9006 25.9708 18.3146L18.9958 25.1667L12.0188 18.3146C11.5886 17.9007 11.2463 17.4043 11.0125 16.8551C10.7786 16.3059 10.658 15.7151 10.6578 15.1182C10.6576 14.5212 10.7778 13.9304 11.0113 13.381C11.2448 12.8316 11.5868 12.335 12.0167 11.9208Z" fill="#653FC0"/>
</svg>
