<svg width="42" height="46" viewBox="0 0 42 46" fill="none" xmlns="http://www.w3.org/2000/svg">
<path d="M33.5833 30.2917V43.8333H8.19269C4.28644 43.8333 2.33331 41.75 2.33331 36.5417V2.16667H14.8333" stroke="#653FC0" stroke-width="4.16667" stroke-linecap="round" stroke-linejoin="round"/>
<path d="M28.375 25.0833C33.5527 25.0833 37.75 20.886 37.75 15.7083C37.75 10.5307 33.5527 6.33334 28.375 6.33334C23.1973 6.33334 19 10.5307 19 15.7083C19 20.886 23.1973 25.0833 28.375 25.0833Z" stroke="#653FC0" stroke-width="4.16667"/>
<path d="M16.9166 16.75V14.6667M39.8333 16.75V14.6667M24.2083 2.16667C27.125 3 28.201 5.29167 28.375 6.33333C28.4614 5.29167 29 3 30.4583 2.16667" stroke="#653FC0" stroke-width="4.16667" stroke-linecap="round" stroke-linejoin="round"/>
<path d="M31.5 16.75C32.6506 16.75 33.5833 15.8173 33.5833 14.6667C33.5833 13.5161 32.6506 12.5833 31.5 12.5833C30.3494 12.5833 29.4166 13.5161 29.4166 14.6667C29.4166 15.8173 30.3494 16.75 31.5 16.75Z" fill="#653FC0"/>
<path d="M25.25 16.75C26.4006 16.75 27.3333 15.8173 27.3333 14.6667C27.3333 13.5161 26.4006 12.5833 25.25 12.5833C24.0994 12.5833 23.1666 13.5161 23.1666 14.6667C23.1666 15.8173 24.0994 16.75 25.25 16.75Z" fill="#653FC0"/>
<path d="M2.33331 35.5H33.5833" stroke="#653FC0" stroke-width="4.16667" stroke-linecap="round" stroke-linejoin="round"/>
</svg>
