<svg width="39" height="37" viewBox="0 0 39 37" fill="none" xmlns="http://www.w3.org/2000/svg">
<path d="M26.3771 1.66667C26.6806 1.86212 26.9282 2.1331 27.0954 2.45303C27.2627 2.77296 27.344 3.13087 27.3312 3.49167L27.3042 3.76667L25.8083 12.5688C25.7129 13.1317 25.7342 13.7082 25.8708 14.2625L25.9937 14.6729L29.7646 25.1938C31.5979 25.5563 33.2229 26.0271 34.4875 26.6042C35.25 26.9521 35.9958 27.3875 36.5792 27.95C37.1646 28.5146 37.75 29.3729 37.75 30.5C37.75 32.2667 36.3687 33.3542 35.4167 33.9167C34.3271 34.5604 32.8875 35.0688 31.2917 35.4667C28.0667 36.2729 23.7208 36.75 19 36.75C14.2792 36.75 9.93333 36.2729 6.70833 35.4667C5.1125 35.0688 3.67292 34.5604 2.58333 33.9167C1.63125 33.3542 0.25 32.2667 0.25 30.5C0.25 29.375 0.833333 28.5146 1.42083 27.95C2.00417 27.3875 2.75 26.95 3.5125 26.6042C4.62083 26.0979 6.00208 25.675 7.55833 25.3333L8.2375 25.1917L13.3625 10.8875C13.8984 9.391 14.8512 8.07899 16.1083 7.10625L16.5375 6.79584L24.0833 1.69167C24.4211 1.46318 24.8184 1.33882 25.2261 1.33401C25.6339 1.32919 26.0341 1.44622 26.3771 1.66667ZM26.1313 27.4083C24.0833 28.0625 21.5979 28.4167 19 28.4167C16.4021 28.4167 13.9167 28.0625 11.8687 27.4083L11.7542 27.7292C11.6292 28.0789 11.413 28.3888 11.1281 28.6269C10.8431 28.865 10.4997 29.0226 10.1333 29.0833C7.97292 29.4396 6.30833 29.9083 5.24167 30.3958C5.03333 30.4896 5.35417 30.6646 5.82917 30.8458L6.26667 30.9979L6.94583 31.2104L7.72083 31.425C10.5271 32.1271 14.5167 32.5833 19 32.5833C23.1854 32.5833 26.9375 32.1875 29.7021 31.5625L30.3687 31.4021L31.0542 31.2104L31.5042 31.0729L31.9583 30.9229C32.5417 30.7146 32.9937 30.5021 32.7583 30.3958C31.6917 29.9083 30.0292 29.4396 27.8667 29.0833C27.5003 29.0226 27.1569 28.865 26.8719 28.6269C26.587 28.3888 26.3708 28.0789 26.2458 27.7292L26.1313 27.4083ZM22.3792 7.875L18.8729 10.25C18.2467 10.6738 17.7476 11.26 17.4292 11.9458L17.2854 12.2958L13.275 23.4833C14.775 23.9438 16.7542 24.2542 19 24.2542C20.9979 24.2542 22.7833 24.0083 24.2083 23.6333L24.725 23.4854L22.0708 16.0792C21.649 14.9023 21.4973 13.6456 21.6271 12.4021L21.7 11.8729L22.3792 7.875ZM34.0458 6.39792C34.9404 8.26155 36.3108 9.85618 38.0187 11.0208L38.4896 11.3271C39.0375 11.6604 39.1312 11.7563 38.6521 12.0729L38.4896 12.175C36.729 13.2562 35.2846 14.7825 34.3021 16.6L33.825 17.5354C33.5958 17.9333 33.475 17.8375 33.1208 17.1021C32.2262 15.2385 30.8558 13.6438 29.1479 12.4792L28.6771 12.175C28.0812 11.8083 28.0729 11.7125 28.5271 11.4208L28.6771 11.3271C30.6012 10.1452 32.144 8.43385 33.1208 6.39792C33.475 5.66251 33.5937 5.56667 33.825 5.96459L33.9646 6.23125L34.0458 6.39792ZM9.82708 0.635422L9.97292 0.891672C10.6271 2.10001 11.6146 3.13334 12.8396 3.90209L13.3104 4.175C13.7104 4.39375 13.7917 4.45834 13.4562 4.65834L13.3104 4.74167C12.0598 5.41089 11.0006 6.38827 10.2333 7.58125L9.81458 8.29792C9.65417 8.53959 9.56875 8.51875 9.42292 8.28125L9.27708 8.02709C8.59874 6.79201 7.61085 5.75459 6.41042 5.01667L5.70208 4.60209C5.55417 4.50209 5.54167 4.43542 5.6875 4.32709L5.9375 4.175C7.18891 3.50607 8.24878 2.52867 9.01667 1.33542L9.27708 0.891672C9.55208 0.385422 9.63958 0.331255 9.82708 0.635422Z" fill="#653FC0"/>
</svg>
