<svg width="387" height="387" viewBox="0 0 387 387" fill="none" xmlns="http://www.w3.org/2000/svg">
<g clip-path="url(#clip0_83_3751)">
<path d="M306.35 145.125L241.875 0H209.6L274.075 145.125H306.35ZM177.4 0H145.125L80.6502 145.125H112.925L177.4 0ZM32.2752 354.725C32.2752 372.487 46.7121 387 64.5504 387H322.525C340.288 387 354.8 372.563 354.8 354.725L370.9 209.6H16.0998L32.2752 354.725ZM274.15 241.875H306.425L290.25 354.725H257.975L274.15 241.875ZM177.4 241.875H209.675V354.725H177.4V241.875ZM112.85 241.875L128.95 354.725H96.75L80.6502 241.875H112.85ZM370.9 161.225H16.0998C7.18066 161.225 0 168.481 0 177.4V193.5H387V177.4C387 168.481 379.819 161.225 370.9 161.225Z" fill="black"/>
</g>
<defs>
<clipPath id="clip0_83_3751">
<rect width="387" height="387" fill="white"/>
</clipPath>
</defs>
</svg>
