<svg width="251" height="251" viewBox="0 0 251 251" fill="none" xmlns="http://www.w3.org/2000/svg">
<path d="M177.792 188.25C166.183 188.25 156.875 197.558 156.875 209.167C156.875 214.714 159.079 220.034 163.001 223.957C166.924 227.88 172.244 230.083 177.792 230.083C183.339 230.083 188.659 227.88 192.582 223.957C196.505 220.034 198.708 214.714 198.708 209.167C198.708 203.619 196.505 198.299 192.582 194.376C188.659 190.454 183.339 188.25 177.792 188.25ZM10.4583 20.9167V41.8333H31.375L69.025 121.212L54.8017 146.835C53.2329 149.763 52.2917 153.215 52.2917 156.875C52.2917 162.422 54.4954 167.743 58.418 171.665C62.3407 175.588 67.6609 177.792 73.2084 177.792H198.708V156.875H77.6009C76.9074 156.875 76.2424 156.6 75.7521 156.109C75.2617 155.619 74.9863 154.954 74.9863 154.26C74.9863 153.738 75.0909 153.319 75.3 153.005L84.7125 135.958H162.627C170.471 135.958 177.373 131.566 180.929 125.186L218.37 57.5208C219.102 55.8475 219.625 54.0696 219.625 52.2917C219.625 49.5179 218.523 46.8578 216.562 44.8965C214.601 42.9352 211.94 41.8333 209.167 41.8333H54.4879L44.6571 20.9167M73.2084 188.25C61.5996 188.25 52.2917 197.558 52.2917 209.167C52.2917 214.714 54.4954 220.034 58.418 223.957C62.3407 227.88 67.6609 230.083 73.2084 230.083C78.7558 230.083 84.076 227.88 87.9987 223.957C91.9213 220.034 94.125 214.714 94.125 209.167C94.125 203.619 91.9213 198.299 87.9987 194.376C84.076 190.454 78.7558 188.25 73.2084 188.25Z" fill="black"/>
</svg>
