<svg width="31" height="30" viewBox="0 0 31 30" fill="none" xmlns="http://www.w3.org/2000/svg">
<path d="M24.3398 23.7934C22.7197 23.7934 21.4206 25.0924 21.4206 26.7126C21.4206 27.4868 21.7282 28.2293 22.2757 28.7767C22.8231 29.3242 23.5656 29.6317 24.3398 29.6317C25.114 29.6317 25.8565 29.3242 26.404 28.7767C26.9514 28.2293 27.259 27.4868 27.259 26.7126C27.259 25.9384 26.9514 25.1959 26.404 24.6484C25.8565 24.101 25.114 23.7934 24.3398 23.7934ZM0.986511 0.440125V3.35929H3.90567L9.16017 14.4375L7.17513 18.0135C6.9562 18.4222 6.82484 18.9038 6.82484 19.4147C6.82484 20.1889 7.13239 20.9314 7.67984 21.4788C8.22729 22.0263 8.96979 22.3338 9.744 22.3338H27.259V19.4147H10.357C10.2602 19.4147 10.1674 19.3762 10.099 19.3078C10.0306 19.2394 9.99213 19.1466 9.99213 19.0498C9.99213 18.9768 10.0067 18.9184 10.0359 18.8746L11.3495 16.4955H22.2234C23.3181 16.4955 24.2814 15.8825 24.7777 14.9921L30.003 5.54866C30.1052 5.31513 30.1781 5.067 30.1781 4.81887C30.1781 4.43176 30.0244 4.06051 29.7506 3.78679C29.4769 3.51306 29.1057 3.35929 28.7186 3.35929H7.13135L5.75934 0.440125M9.744 23.7934C8.12386 23.7934 6.82484 25.0924 6.82484 26.7126C6.82484 27.4868 7.13239 28.2293 7.67984 28.7767C8.22729 29.3242 8.96979 29.6317 9.744 29.6317C10.5182 29.6317 11.2607 29.3242 11.8082 28.7767C12.3556 28.2293 12.6632 27.4868 12.6632 26.7126C12.6632 25.9384 12.3556 25.1959 11.8082 24.6484C11.2607 24.101 10.5182 23.7934 9.744 23.7934Z" fill="#7754C2"/>
</svg>
