<svg width="35" height="30" viewBox="0 0 35 30" fill="none" xmlns="http://www.w3.org/2000/svg">
<path d="M10.3097 15.486V21.3243M23.7378 15.486V21.3243" stroke="black" stroke-width="0.5"/>
<path d="M10.3443 1.69361C6.60773 -0.641724 6.61205 2.4471 6.80666 4.39321L17.3502 10.4512L27.2753 4.61277C28.2095 0.876147 25.3292 1.10973 23.7724 1.69361L17.3502 5.78055C16.5718 5.39129 14.0808 4.02893 10.3443 1.69361Z" fill="black" stroke="black" stroke-width="0.5"/>
<path d="M27.3083 4.2708L17.5496 10.358L6.64278 4.2708C2.66274 1.76061 1.24252 4.81467 1.02991 6.65548V23.8503C1.02991 27.0633 5.45217 28.8288 7.6633 29.3099H26.4154C30.0382 29.3099 32.6023 25.6702 33.4315 23.8503C33.4953 19.7294 33.5846 10.5212 33.4315 6.65548C33.2784 2.78979 29.2856 3.45499 27.3083 4.2708Z" stroke="black"/>
<path d="M14.5727 24.261L17.1149 20.7408L19.7124 24.261L17.1149 26.9475L14.5727 24.261Z" stroke="black" stroke-width="0.5"/>
<path d="M19.1447 24.4866L16.9757 20.7224L16.4178 21.7493L18.5392 25.3622L19.1447 24.4866Z" stroke="black" stroke-width="0.5"/>
<circle cx="10.1429" cy="18.3406" r="7.09101" stroke="black" stroke-width="0.5"/>
<circle cx="23.7382" cy="18.4052" r="6.75599" stroke="black" stroke-width="0.5"/>
<circle cx="10.2065" cy="18.5305" r="2.98065" stroke="black"/>
<circle cx="23.7493" cy="18.5305" r="2.98065" transform="rotate(-180 23.7493 18.5305)" stroke="black"/>
</svg>
