<svg width="35" height="30" viewBox="0 0 35 30" fill="none" xmlns="http://www.w3.org/2000/svg">
<path d="M10.3096 15.486V21.3243M23.7377 15.486V21.3243" stroke="#8E6BE1" stroke-width="0.5"/>
<path d="M10.3442 1.69361C6.60767 -0.641724 6.61198 2.4471 6.8066 4.39321L17.3501 10.4512L27.2753 4.61277C28.2094 0.876147 25.3292 1.10973 23.7723 1.69361L17.3501 5.78055C16.5717 5.39129 14.0807 4.02893 10.3442 1.69361Z" fill="#7754C2" stroke="#7754C2" stroke-width="0.5"/>
<path d="M27.3082 4.2708L17.5495 10.358L6.64266 4.2708C2.66262 1.76061 1.24239 4.81467 1.02979 6.65548V23.8503C1.02979 27.0633 5.45205 28.8288 7.66318 29.3099H26.4153C30.0381 29.3099 32.6022 25.6702 33.4314 23.8503C33.4951 19.7294 33.5844 10.5212 33.4314 6.65548C33.2783 2.78979 29.2855 3.45499 27.3082 4.2708Z" stroke="#8E6BE1"/>
<path d="M14.5726 24.261L17.1149 20.7408L19.7124 24.261L17.1149 26.9475L14.5726 24.261Z" stroke="#8E6BE1" stroke-width="0.5"/>
<path d="M19.1446 24.4866L16.9756 20.7224L16.4178 21.7493L18.5392 25.3622L19.1446 24.4866Z" stroke="#8E6BE1" stroke-width="0.5"/>
<circle cx="10.1428" cy="18.3406" r="7.09101" stroke="#8E6BE1" stroke-width="0.5"/>
<circle cx="23.738" cy="18.4052" r="6.75599" stroke="#8E6BE1" stroke-width="0.5"/>
<circle cx="10.2064" cy="18.5305" r="2.98065" stroke="#7146D8"/>
<circle cx="23.7492" cy="18.5305" r="2.98065" transform="rotate(-180 23.7492 18.5305)" stroke="#7146D8"/>
</svg>
