<svg width="189" height="189" viewBox="0 0 189 189" fill="none" xmlns="http://www.w3.org/2000/svg">
<path d="M173.983 188.625L108.096 122.737C102.867 126.921 96.8531 130.233 90.0552 132.673C83.2573 135.113 76.0236 136.333 68.3542 136.333C49.3549 136.333 33.2769 129.752 20.1203 116.588C6.96375 103.424 0.381978 87.3465 0.375006 68.3542C0.368033 49.3618 6.94981 33.2839 20.1203 20.1203C33.2909 6.95678 49.3688 0.375 68.3542 0.375C87.3395 0.375 103.421 6.95678 116.598 20.1203C129.776 33.2839 136.354 49.3618 136.333 68.3542C136.333 76.0236 135.113 83.2573 132.673 90.0552C130.233 96.8531 126.921 102.867 122.738 108.096L188.625 173.983L173.983 188.625ZM68.3542 115.417C81.4271 115.417 92.5408 110.843 101.695 101.695C110.85 92.5478 115.424 81.4341 115.417 68.3542C115.41 55.2743 110.836 44.164 101.695 35.0235C92.5548 25.8829 81.441 21.3056 68.3542 21.2917C55.2673 21.2777 44.1571 25.855 35.0235 35.0235C25.8899 44.1919 21.3126 55.3022 21.2917 68.3542C21.2708 81.4062 25.848 92.5199 35.0235 101.695C44.1989 110.871 55.3091 115.445 68.3542 115.417Z" fill="black"/>
</svg>
