<svg width="24" height="24" viewBox="0 0 24 24" fill="none" xmlns="http://www.w3.org/2000/svg">
<path d="M11.9581 12.0359C10.3526 12.0359 8.97814 11.4643 7.8348 10.3209C6.69146 9.17758 6.11979 7.80315 6.11979 6.19761C6.11979 4.59207 6.69146 3.21763 7.8348 2.07429C8.97814 0.930953 10.3526 0.359283 11.9581 0.359283C13.5637 0.359283 14.9381 0.930953 16.0814 2.07429C17.2248 3.21763 17.7964 4.59207 17.7964 6.19761C17.7964 7.80315 17.2248 9.17758 16.0814 10.3209C14.9381 11.4643 13.5637 12.0359 11.9581 12.0359ZM0.281471 23.7126V19.6258C0.281471 18.7987 0.49457 18.0382 0.920768 17.3444C1.34697 16.6506 1.91231 16.1218 2.6168 15.7579C4.12503 15.0037 5.65759 14.4379 7.21448 14.0604C8.77137 13.6828 10.3526 13.4945 11.9581 13.4955C13.5637 13.4955 15.1449 13.6843 16.7018 14.0618C18.2586 14.4394 19.7912 15.0047 21.2994 15.7579C22.0049 16.1228 22.5707 16.6521 22.9969 17.3459C23.4231 18.0397 23.6357 18.7996 23.6348 19.6258V23.7126H0.281471Z" fill="#653FC0"/>
</svg>
