<svg width="169" height="169" viewBox="0 0 169 169" fill="none" xmlns="http://www.w3.org/2000/svg">
<path d="M84.5 84.5C72.9958 84.5 63.1475 80.4038 54.9552 72.2114C46.7628 64.0191 42.6666 54.1708 42.6666 42.6667C42.6666 31.1625 46.7628 21.3142 54.9552 13.1219C63.1475 4.92951 72.9958 0.833328 84.5 0.833328C96.0041 0.833328 105.852 4.92951 114.045 13.1219C122.237 21.3142 126.333 31.1625 126.333 42.6667C126.333 54.1708 122.237 64.0191 114.045 72.2114C105.852 80.4038 96.0041 84.5 84.5 84.5ZM0.833313 168.167V138.883C0.833313 132.957 2.36023 127.508 5.41406 122.537C8.4679 117.566 12.5188 113.776 17.5666 111.169C28.3736 105.765 39.3548 101.711 50.5104 99.0057C61.6659 96.3005 72.9958 94.9513 84.5 94.9583C96.0041 94.9583 107.334 96.3109 118.49 99.0161C129.645 101.721 140.626 105.772 151.433 111.169C156.488 113.783 160.542 117.576 163.596 122.547C166.65 127.519 168.174 132.964 168.167 138.883V168.167H0.833313Z" fill="black"/>
</svg>
