<svg width="271" height="302" viewBox="0 0 271 302" fill="none" xmlns="http://www.w3.org/2000/svg">
<path d="M10 72.5H261M104.125 135.25V229.375M166.875 135.25V229.375M25.6875 72.5L41.375 260.75C41.375 269.071 44.6806 277.052 50.5645 282.935C56.4485 288.819 64.4288 292.125 72.75 292.125H198.25C206.571 292.125 214.552 288.819 220.435 282.935C226.319 277.052 229.625 269.071 229.625 260.75L245.312 72.5M88.4375 72.5V25.4375C88.4375 21.2769 90.0903 17.2867 93.0323 14.3448C95.9742 11.4028 99.9644 9.75 104.125 9.75H166.875C171.036 9.75 175.026 11.4028 177.968 14.3448C180.91 17.2867 182.562 21.2769 182.562 25.4375V72.5" stroke="black" stroke-width="19" stroke-linecap="round" stroke-linejoin="round"/>
</svg>
