<svg width="36" height="36" viewBox="0 0 36 36" fill="none" xmlns="http://www.w3.org/2000/svg">
<path d="M19.799 0.5C21.7677 0.50525 22.767 0.51575 23.6297 0.54025L23.9692 0.5525C24.3612 0.5665 24.748 0.584 25.2152 0.605C27.0772 0.6925 28.3477 0.9865 29.4625 1.41875C30.6175 1.86325 31.5905 2.46525 32.5635 3.4365C33.4537 4.31103 34.1423 5.36933 34.5812 6.5375C35.0135 7.65225 35.3075 8.92275 35.395 10.7865C35.416 11.252 35.4335 11.6388 35.4475 12.0325L35.458 12.372C35.4842 13.233 35.4947 14.2323 35.4982 16.201L35.5 17.5065V19.799C35.5042 21.0755 35.4908 22.3519 35.4597 23.628L35.4492 23.9675C35.4352 24.3613 35.4177 24.748 35.3967 25.2135C35.3092 27.0773 35.0117 28.346 34.5812 29.4625C34.1423 30.6307 33.4537 31.689 32.5635 32.5635C31.689 33.4537 30.6307 34.1423 29.4625 34.5813C28.3477 35.0135 27.0772 35.3075 25.2152 35.395L23.9692 35.4475L23.6297 35.458C22.767 35.4825 21.7677 35.4948 19.799 35.4983L18.4935 35.5H16.2027C14.9257 35.5045 13.6487 35.4911 12.372 35.4598L12.0325 35.4493C11.6171 35.4335 11.2017 35.4154 10.7865 35.395C8.92449 35.3075 7.65399 35.0135 6.53749 34.5813C5.36994 34.1421 4.31226 33.4535 3.43824 32.5635C2.54739 31.6891 1.85818 30.6308 1.41874 29.4625C0.986488 28.3477 0.692488 27.0773 0.604988 25.2135L0.552488 23.9675L0.543738 23.628C0.511479 22.3519 0.496894 21.0755 0.499988 19.799V16.201C0.495144 14.9246 0.507979 13.6481 0.538488 12.372L0.550738 12.0325C0.564738 11.6388 0.582238 11.252 0.603238 10.7865C0.690738 8.92275 0.984738 7.654 1.41699 6.5375C1.85745 5.36885 2.54788 4.31051 3.43999 3.4365C4.31351 2.54671 5.37057 1.85813 6.53749 1.41875C7.65399 0.9865 8.92274 0.6925 10.7865 0.605C11.252 0.584 11.6405 0.5665 12.0325 0.5525L12.372 0.542C13.6481 0.510907 14.9245 0.497489 16.201 0.50175L19.799 0.5ZM18 9.25C15.6793 9.25 13.4537 10.1719 11.8128 11.8128C10.1719 13.4538 9.24999 15.6794 9.24999 18C9.24999 20.3206 10.1719 22.5462 11.8128 24.1872C13.4537 25.8281 15.6793 26.75 18 26.75C20.3206 26.75 22.5462 25.8281 24.1872 24.1872C25.8281 22.5462 26.75 20.3206 26.75 18C26.75 15.6794 25.8281 13.4538 24.1872 11.8128C22.5462 10.1719 20.3206 9.25 18 9.25ZM18 12.75C18.6894 12.7499 19.3721 12.8856 20.0091 13.1493C20.6461 13.413 21.225 13.7996 21.7126 14.2871C22.2001 14.7745 22.587 15.3532 22.8509 15.9901C23.1148 16.627 23.2507 17.3097 23.2509 17.9991C23.251 18.6886 23.1153 19.3713 22.8516 20.0083C22.5878 20.6453 22.2012 21.2241 21.7138 21.7117C21.2264 22.1993 20.6477 22.5861 20.0108 22.85C19.3738 23.114 18.6912 23.2499 18.0017 23.25C16.6094 23.25 15.274 22.6969 14.2894 21.7123C13.3049 20.7277 12.7517 19.3924 12.7517 18C12.7517 16.6076 13.3049 15.2723 14.2894 14.2877C15.274 13.3031 16.6094 12.75 18.0017 12.75M27.1892 6.625C26.6091 6.625 26.0527 6.85547 25.6424 7.2657C25.2322 7.67594 25.0017 8.23234 25.0017 8.8125C25.0017 9.39266 25.2322 9.94906 25.6424 10.3593C26.0527 10.7695 26.6091 11 27.1892 11C27.7694 11 28.3258 10.7695 28.736 10.3593C29.1463 9.94906 29.3767 9.39266 29.3767 8.8125C29.3767 8.23234 29.1463 7.67594 28.736 7.2657C28.3258 6.85547 27.7694 6.625 27.1892 6.625Z" fill="#180C36"/>
</svg>
