<svg width="231" height="157" viewBox="0 0 231 157" fill="none" xmlns="http://www.w3.org/2000/svg">
<path d="M115.5 47.125C107.179 47.125 99.1985 50.4306 93.3145 56.3145C87.4305 62.1985 84.125 70.1788 84.125 78.5C84.125 86.8212 87.4305 94.8015 93.3145 100.685C99.1985 106.569 107.179 109.875 115.5 109.875C123.821 109.875 131.802 106.569 137.685 100.685C143.569 94.8015 146.875 86.8212 146.875 78.5C146.875 70.1788 143.569 62.1985 137.685 56.3145C131.802 50.4306 123.821 47.125 115.5 47.125ZM115.5 130.792C101.631 130.792 88.3308 125.282 78.5242 115.476C68.7176 105.669 63.2083 92.3686 63.2083 78.5C63.2083 64.6314 68.7176 51.3308 78.5242 41.5242C88.3308 31.7176 101.631 26.2083 115.5 26.2083C129.369 26.2083 142.669 31.7176 152.476 41.5242C162.282 51.3308 167.792 64.6314 167.792 78.5C167.792 92.3686 162.282 105.669 152.476 115.476C142.669 125.282 129.369 130.792 115.5 130.792ZM115.5 0.0625C63.2083 0.0625 18.5512 32.5879 0.458313 78.5C18.5512 124.412 63.2083 156.937 115.5 156.937C167.792 156.937 212.449 124.412 230.542 78.5C212.449 32.5879 167.792 0.0625 115.5 0.0625Z" fill="black"/>
</svg>
